# xmcd
#
# Track frame offsets:
#	180
#	22369
#	40657
#	65245
#	82698
#	100235
#	115955
#	132696
#	153463
#	170689
#	188074
#	209491
#	225923
#	241438
#	260866
#	281434
#
# Disc length: 3979 seconds
#
# Revision: 0
# Processed by: cddbd v1.5.2PL0 Copyright (c) Steve Scherf et al.
# Submitted via: EasyCDDAExtractor 12.0.0.1
#
DISCID=ea0f8910
DTITLE=Various Artist - Deep Dreams
DYEAR=1900
DGENRE=Ballad
TTITLE0=SWV - Can We
TTITLE1=Prince - The Holy River
TTITLE2=Lc Talk - Just Between You And Me
TTITLE3=Nana - Lonely
TTITLE4=Soundcage feat. Red Dogg - Ways Of Life
TTITLE5=Intigue - Stay Another Day
TTITLE6=Montserrat Caballe and Johny Logan - Vision Of Glory
TTITLE7=Wet Wet Wet - Straight From My Heart
TTITLE8=Kron - I Just Can't Believe
TTITLE9=Texas - Say What You Want
TTITLE10=Amanda Marshall - Beautiful Goodbye
TTITLE11=South Fast Section - Thought L'a Forget
TTITLE12=Keb' Mo' - Just Like You
TTITLE13=Eternal - I Wanna Be The Only One
TTITLE14=MC Lyte - Keep On Keepin' On
TTITLE15=Donna Lewis - I Love You Always Forever
EXTD=
EXTT0=
EXTT1=
EXTT2=
EXTT3=
EXTT4=
EXTT5=
EXTT6=
EXTT7=
EXTT8=
EXTT9=
EXTT10=
EXTT11=
EXTT12=
EXTT13=
EXTT14=
EXTT15=
PLAYORDER=
